<svg xmlns="http://www.w3.org/2000/svg" width="1000" height="1000" id="empty" style="">
   <g id="horizontal" transform="matrix(1,0,0,1,0,0)">
      <g id="icon" transform="matrix(0.8087356538412828,0,0,0.8087356538412828,13.3223820897109,-7.935940361719062)">
         <path fill="#0d6efd" fill-rule="evenodd" d="M336.4382822850148 700.8225043495812C337.83828228501477 703.1225043495812 342.4382822850148 707.8225043495812 350.23828228501475 703.8225043495812C361.53828228501476 698.0225043495811 363.23828228501475 666.5225043495811 359.9382822850148 653.9225043495812C357.73828228501475 645.4225043495812 351.9382822850148 630.1225043495812 340.1382822850148 646.8225043495812C333.6382822850148 656.0225043495811 332.33828228501477 674.5225043495811 332.33828228501477 680.6225043495812C332.4382822850148 684.4225043495812 332.4382822850148 693.9225043495812 336.4382822850148 700.8225043495812ZM342.33828228501477 658.9225043495812C344.1382822850148 652.5225043495811 347.4382822850148 640.5225043495811 353.53828228501476 648.1225043495812C359.6382822850148 655.7225043495812 358.83828228501477 679.8225043495812 355.6382822850148 690.6225043495812C352.4382822850148 701.4225043495812 347.33828228501477 703.6225043495812 343.53828228501476 696.4225043495812C339.73828228501475 689.4225043495812 340.23828228501475 666.1225043495812 342.33828228501477 658.9225043495812Z " transform="matrix(0.9660536071965111,0,0,0.9660536071965111,2.364512640150423,4.114302704186684)"></path>
         <path fill="#0d6efd" fill-rule="evenodd" d="M413.63828228501467 565.6225043495812L412.13828228501467 554.9225043495811L403.43828228501474 548.4225043495811C401.7382822850147 547.1225043495812 360.03828228501465 517.0225043495811 300.4382822850147 517.0225043495811C240.43828228501468 517.0225043495811 200.13828228501467 547.6225043495812 198.43828228501468 548.9225043495811L189.5382822850147 555.6225043495812L188.2382822850147 566.7225043495812C188.0382822850147 568.1225043495812 185.5382822850147 590.3225043495811 186.43828228501468 617.0225043495811C189.0382822850147 614.9225043495811 192.0382822850147 613.0225043495811 195.13828228501467 611.3225043495811C197.2382822850147 610.2225043495812 201.2382822850147 608.5225043495811 206.33828228501469 607.9225043495811C206.33828228501469 607.9225043495811 200.63828228501467 607.3225043495811 195.7382822850147 609.1225043495812C195.5382822850147 586.7225043495812 197.5382822850147 569.0225043495811 197.63828228501467 567.8225043495811L198.43828228501468 560.7225043495812L204.13828228501467 556.4225043495811C205.7382822850147 555.2225043495812 243.6382822850147 526.4225043495811 300.4382822850147 526.4225043495811C356.9382822850147 526.4225043495811 396.13828228501467 554.7225043495812 397.8382822850147 555.9225043495811L403.3382822850147 560.0225043495811L404.3382822850147 566.8225043495811C404.53828228501465 568.2225043495812 407.63828228501467 590.4225043495811 407.43828228501474 616.9225043495811C406.8382822850147 616.4225043495811 406.03828228501465 616.1225043495812 405.3382822850147 616.1225043495812C403.43828228501474 616.1225043495812 402.7382822850147 617.9225043495811 402.7382822850147 617.9225043495811C402.7382822850147 617.9225043495811 405.03828228501465 617.2225043495812 406.93828228501474 620.7225043495812C407.13828228501467 621.0225043495811 407.2382822850147 621.3225043495811 407.3382822850147 621.6225043495812C407.2382822850147 624.3225043495811 407.13828228501467 627.1225043495812 407.03828228501465 629.9225043495811C405.93828228501474 622.1225043495812 403.63828228501467 620.6225043495812 402.53828228501465 620.6225043495812C399.7382822850147 620.6225043495812 399.03828228501465 627.1225043495812 398.53828228501465 632.2225043495812C398.03828228501465 637.3225043495811 398.53828228501465 649.3225043495811 401.13828228501467 655.4225043495812C401.7382822850147 656.8225043495811 402.53828228501465 657.7225043495812 403.3382822850147 657.8225043495811C402.2382822850147 657.8225043495811 400.53828228501465 657.0225043495811 399.3382822850147 653.2225043495812C395.63828228501467 642.1225043495812 397.3382822850147 630.7225043495812 398.03828228501465 626.9225043495811C398.7382822850147 622.9225043495811 396.53828228501465 626.3225043495811 395.7382822850147 627.5225043495811C394.93828228501474 628.7225043495812 391.8382822850147 634.2225043495812 390.43828228501474 646.2225043495812C389.03828228501465 658.2225043495812 390.63828228501467 659.5225043495811 390.63828228501467 659.5225043495811C396.93828228501474 662.3225043495811 401.93828228501474 659.5225043495811 403.8382822850147 658.2225043495812C399.53828228501465 680.0225043495811 390.63828228501467 697.5225043495811 375.8382822850147 713.5225043495811C361.3382822850147 729.2225043495812 340.7382822850147 743.5225043495811 311.2382822850147 758.6225043495812L300.2382822850147 764.0225043495811L290.2382822850147 758.1225043495812C260.83828228501466 741.5225043495811 239.93828228501468 725.8225043495811 225.43828228501468 708.6225043495812C233.43828228501468 709.0225043495811 235.1382822850147 708.4225043495812 235.1382822850147 708.4225043495812C232.03828228501467 708.3225043495811 227.63828228501467 707.7225043495812 224.0382822850147 707.2225043495812C222.93828228501468 707.0225043495811 221.93828228501468 706.9225043495812 220.83828228501469 706.7225043495812C220.7382822850147 706.7225043495812 220.7382822850147 706.7225043495812 220.63828228501467 706.7225043495812C217.13828228501467 706.2225043495812 213.83828228501469 705.6225043495812 210.63828228501467 705.0225043495811C225.93828228501468 726.9225043495812 249.7382822850147 746.0225043495811 285.5382822850147 766.3225043495811L300.33828228501466 774.7225043495812L315.4382822850147 767.0225043495811C345.9382822850147 751.4225043495812 367.3382822850147 736.4225043495812 382.63828228501467 719.9225043495812C398.8382822850147 702.5225043495811 408.43828228501474 683.3225043495811 413.13828228501467 659.5225043495811C421.03828228501465 618.5225043495811 413.93828228501474 567.7225043495812 413.63828228501467 565.6225043495812ZM405.93828228501474 642.9225043495811C405.53828228501465 646.3225043495811 405.13828228501467 649.6225043495812 404.63828228501467 652.9225043495812C404.13828228501467 653.9225043495812 403.43828228501474 653.9225043495812 403.03828228501465 652.5225043495811C400.7382822850147 646.0225043495811 401.8382822850147 631.1225043495812 401.8382822850147 630.0225043495811C402.03828228501465 626.6225043495812 403.3382822850147 625.2225043495812 404.53828228501465 627.9225043495811C405.63828228501467 630.5225043495811 406.03828228501465 637.3225043495811 405.93828228501474 642.9225043495811Z " transform="matrix(0.9660536071965111,0,0,0.9660536071965111,2.364512640150423,4.114302704186684)"></path>
         <path fill="#0d6efd" fill-rule="evenodd" d="M279.7382822850147 659.9225043495812C279.7382822850147 659.9225043495812 299.6382822850147 665.8225043495812 317.33828228501466 659.0225043495811C323.6382822850147 656.6225043495812 334.33828228501466 641.0225043495811 334.33828228501466 641.0225043495811C334.33828228501466 641.0225043495811 330.2382822850147 640.8225043495812 308.83828228501466 643.2225043495812C287.5382822850147 645.6225043495812 279.7382822850147 659.9225043495812 279.7382822850147 659.9225043495812Z " transform="matrix(0.9660536071965111,0,0,0.9660536071965111,2.364512640150423,4.114302704186684)"></path>
         <path fill="#0d6efd" fill-rule="evenodd" d="M353.7382822850147 609.7225043495812C353.7382822850147 609.7225043495812 357.7382822850147 593.8225043495811 355.1382822850147 590.6225043495812C349.2382822850147 583.5225043495811 313.6382822850147 583.2225043495812 296.9382822850147 586.6225043495812C280.2382822850147 590.0225043495811 264.5382822850147 601.2225043495812 256.5382822850147 609.4225043495811C256.5382822850147 609.5225043495811 337.5382822850147 610.5225043495811 353.7382822850147 609.7225043495812Z " transform="matrix(0.9660536071965111,0,0,0.9660536071965111,2.364512640150423,4.114302704186684)"></path>
         <path fill="#0d6efd" fill-rule="evenodd" d="M181.13828228501467 653.8225043495811C187.2382822850147 655.4225043495812 253.03828228501467 664.5225043495811 266.4382822850147 660.3225043495811C287.7382822850147 653.6225043495812 280.4382822850147 638.2225043495812 333.5382822850147 638.2225043495812C333.5382822850147 638.2225043495812 299.1382822850147 631.4225043495811 285.7382822850147 642.2225043495812C272.33828228501466 653.0225043495811 255.83828228501469 650.1225043495812 246.93828228501468 649.7225043495812C237.93828228501468 649.3225043495811 202.33828228501469 645.5225043495811 193.13828228501467 643.7225043495812C190.7382822850147 643.2225043495812 189.63828228501467 643.0225043495811 190.0382822850147 640.6225043495812C190.13828228501467 639.8225043495811 194.93828228501468 620.5225043495811 215.43828228501468 613.8225043495811C234.6382822850147 607.5225043495811 246.6382822850147 608.8225043495811 252.43828228501468 608.6225043495812C261.33828228501466 600.5225043495811 277.2382822850147 586.8225043495811 300.0382822850147 583.4225043495811C313.33828228501466 581.4225043495811 323.9382822850147 581.2225043495812 332.1382822850147 581.7225043495812C338.7382822850147 582.1225043495812 353.83828228501466 582.1225043495812 358.7382822850147 588.8225043495811C359.8382822850147 590.3225043495811 359.63828228501467 601.6225043495812 357.2382822850147 609.4225043495811C360.3382822850147 610.1225043495812 362.93828228501474 609.0225043495811 362.93828228501474 609.0225043495811C362.93828228501474 609.0225043495811 362.93828228501474 609.0225043495811 362.93828228501474 608.9225043495811C369.7382822850147 608.4225043495811 375.53828228501465 612.7225043495812 384.3382822850147 606.7225043495812C386.13828228501467 605.4225043495811 387.3382822850147 604.2225043495812 387.8382822850147 603.1225043495812C391.3382822850147 603.7225043495812 394.53828228501465 604.9225043495811 396.2382822850147 606.6225043495812C399.7382822850147 610.3225043495811 398.53828228501465 613.8225043495811 398.53828228501465 613.8225043495811C394.93828228501474 612.1225043495812 390.03828228501465 613.4225043495811 383.53828228501465 615.4225043495811C377.03828228501465 617.4225043495811 368.53828228501465 620.5225043495811 357.2382822850147 623.0225043495811C345.9382822850147 625.5225043495811 343.4382822850147 638.1225043495812 343.4382822850147 638.1225043495812C343.4382822850147 638.1225043495812 356.83828228501466 630.3225043495811 360.53828228501465 649.6225043495812C360.53828228501465 649.6225043495812 363.7382822850147 637.7225043495812 356.83828228501466 633.2225043495812C354.4382822850147 631.7225043495812 351.0382822850147 631.2225043495812 349.2382822850147 632.0225043495811C351.7382822850147 630.1225043495812 354.7382822850147 628.7225043495812 357.83828228501466 629.1225043495812C365.3382822850147 630.1225043495812 376.13828228501467 624.1225043495812 382.43828228501474 621.8225043495811C388.7382822850147 619.6225043495812 395.13828228501467 616.1225043495812 396.13828228501467 622.0225043495811C396.63828228501467 625.0225043495811 397.63828228501467 624.4225043495811 398.03828228501465 622.6225043495812C399.2382822850147 617.6225043495812 401.63828228501467 614.7225043495812 402.53828228501465 613.8225043495811C403.43828228501474 612.9225043495811 404.2382822850147 612.4225043495811 405.03828228501465 612.4225043495811C405.03828228501465 612.4225043495811 399.7382822850147 601.5225043495811 388.2382822850147 601.8225043495811C388.7382822850147 599.1225043495812 385.93828228501474 597.1225043495812 381.8382822850147 596.3225043495811C379.3382822850147 591.1225043495812 372.2382822850147 581.5225043495811 353.83828228501466 578.4225043495811C352.1382822850147 578.1225043495812 350.2382822850147 577.8225043495811 348.1382822850147 577.6225043495812C343.4382822850147 577.1225043495812 311.9382822850147 575.2225043495812 295.5382822850147 579.9225043495811C266.6382822850147 588.1225043495812 250.1382822850147 606.7225043495812 250.1382822850147 606.7225043495812C250.1382822850147 606.7225043495812 234.7382822850147 605.5225043495811 219.33828228501469 609.2225043495812C206.0382822850147 612.3225043495811 183.33828228501469 620.5225043495811 176.0382822850147 642.3225043495811C176.0382822850147 642.6225043495812 173.7382822850147 651.8225043495811 181.13828228501467 653.8225043495811ZM365.13828228501467 588.1225043495812C369.03828228501465 587.7225043495812 375.13828228501467 592.5225043495811 379.13828228501467 596.2225043495812C377.8382822850147 596.1225043495812 376.43828228501474 596.1225043495812 375.03828228501465 596.2225043495812C365.53828228501465 597.0225043495811 371.2382822850147 601.9225043495811 368.03828228501465 603.8225043495811C366.53828228501465 604.7225043495812 364.93828228501474 605.0225043495811 363.7382822850147 605.2225043495812C364.7382822850147 600.0225043495811 366.3382822850147 591.2225043495812 365.13828228501467 588.1225043495812Z " transform="matrix(0.9660536071965111,0,0,0.9660536071965111,2.364512640150423,4.114302704186684)"></path>
         <path fill="#0d6efd" fill-rule="evenodd" d="M277.7382822850147 640.1225043495812C283.7382822850147 636.3225043495812 299.9382822850147 621.9225043495812 319.4382822850147 620.8225043495812C289.4382822850147 621.2225043495812 268.83828228501466 642.3225043495812 268.83828228501466 642.3225043495812C268.83828228501466 642.3225043495812 271.7382822850147 643.9225043495812 277.7382822850147 640.1225043495812Z " transform="matrix(0.9660536071965111,0,0,0.9660536071965111,2.364512640150423,4.114302704186684)"></path>
         <path fill="#0d6efd" fill-rule="evenodd" d="M231.13828228501472 620.8225043495812C215.1382822850147 627.7225043495812 200.3382822850147 638.3225043495812 200.3382822850147 638.3225043495812C200.3382822850147 638.3225043495812 205.2382822850147 639.9225043495812 217.93828228501468 630.1225043495812C230.6382822850147 620.4225043495812 246.8382822850147 615.0225043495811 246.8382822850147 615.0225043495811C246.8382822850147 615.0225043495811 247.13828228501472 613.9225043495812 231.13828228501472 620.8225043495812Z " transform="matrix(0.9660536071965111,0,0,0.9660536071965111,2.364512640150423,4.114302704186684)"></path>
         <path fill="#0d6efd" fill-rule="evenodd" d="M290.7382822850147 681.0225043495811C290.7382822850147 681.0225043495811 290.4382822850147 681.0225043495811 290.0382822850147 681.0225043495811C288.1382822850147 681.0225043495811 283.0382822850147 681.0225043495811 280.5382822850147 681.2225043495812C273.7382822850147 681.7225043495812 267.0382822850147 682.0225043495811 260.5382822850147 682.0225043495811C234.83828228501469 682.0225043495811 212.83828228501469 678.3225043495812 199.5382822850147 675.4225043495812C191.2382822850147 673.6225043495812 185.2382822850147 672.6225043495812 185.2382822850147 672.6225043495812C185.2382822850147 672.6225043495812 190.63828228501467 675.7225043495812 198.83828228501469 677.5225043495811C212.13828228501467 680.4225043495812 234.43828228501468 684.3225043495812 260.5382822850147 684.3225043495812C267.0382822850147 684.3225043495812 273.83828228501466 683.5225043495811 280.7382822850147 682.9225043495812C283.83828228501466 682.6225043495812 290.7382822850147 681.0225043495811 290.7382822850147 681.0225043495811Z " transform="matrix(0.9660536071965111,0,0,0.9660536071965111,2.364512640150423,4.114302704186684)"></path>
         <path fill="#0d6efd" fill-rule="evenodd" d="M330.1382822850147 697.2225043495812C324.7382822850147 675.2225043495812 330.0382822850147 659.8225043495812 332.1382822850147 653.5225043495811C330.0382822850147 655.2225043495812 327.1382822850147 657.1225043495812 323.33828228501466 659.3225043495812C314.2382822850147 664.5225043495811 304.5382822850147 666.0225043495811 296.33828228501466 666.0225043495811C284.9382822850147 666.0225043495811 276.33828228501466 663.1225043495812 276.33828228501466 663.1225043495812C270.1382822850147 664.5225043495811 262.6382822850147 665.0225043495811 254.7382822850147 665.0225043495811C227.83828228501469 665.0225043495811 195.33828228501469 658.8225043495812 185.43828228501468 657.3225043495812C172.43828228501468 655.4225043495812 174.63828228501467 648.8225043495812 174.63828228501467 648.8225043495812C174.63828228501467 648.8225043495812 170.5382822850147 657.9225043495812 175.43828228501468 666.2225043495812C180.33828228501469 674.5225043495811 177.0382822850147 677.3225043495812 175.43828228501468 679.8225043495812C173.83828228501469 682.3225043495812 166.2382822850147 686.2225043495812 184.33828228501469 691.9225043495812C196.5382822850147 695.7225043495812 227.93828228501468 703.8225043495812 268.4382822850147 703.8225043495812C287.33828228501466 703.8225043495812 308.2382822850147 702.0225043495811 330.1382822850147 697.2225043495812ZM178.13828228501467 681.6225043495812C178.2382822850147 681.4225043495812 185.43828228501468 674.7225043495812 178.33828228501469 664.5225043495811C176.83828228501469 662.4225043495812 176.5382822850147 659.9225043495812 176.43828228501468 657.8225043495812C178.63828228501467 659.1225043495812 181.5382822850147 660.0225043495811 185.13828228501467 660.6225043495812C186.7382822850147 660.8225043495812 189.0382822850147 661.2225043495812 191.83828228501469 661.7225043495812C205.93828228501468 664.0225043495811 232.33828228501469 668.3225043495812 254.93828228501468 668.3225043495812C263.33828228501466 668.3225043495812 270.5382822850147 667.7225043495812 276.4382822850147 666.5225043495811C279.0382822850147 667.3225043495812 286.7382822850147 669.3225043495812 296.5382822850147 669.3225043495812C307.2382822850147 669.3225043495812 316.83828228501466 666.9225043495812 325.1382822850147 662.2225043495812C325.6382822850147 661.9225043495812 326.1382822850147 661.6225043495812 326.6382822850147 661.3225043495812C324.9382822850147 668.3225043495812 323.7382822850147 678.4225043495812 325.7382822850147 690.9225043495812C251.83828228501469 705.3225043495812 183.63828228501467 685.0225043495811 178.13828228501467 681.6225043495812Z " transform="matrix(0.9660536071965111,0,0,0.9660536071965111,2.364512640150423,4.114302704186684)"></path>
         <path fill="#0d6efd" fill-rule="evenodd" d="M362.83828228501477 680.4225043495812L388.83828228501477 660.4225043495812C388.33828228501477 659.4225043495812 388.03828228501476 658.2225043495812 387.83828228501477 656.9225043495812L363.33828228501477 676.0225043495811C363.23828228501475 677.4225043495812 363.1382822850148 678.9225043495812 362.83828228501477 680.4225043495812Z " transform="matrix(0.9660536071965111,0,0,0.9660536071965111,2.364512640150423,4.114302704186684)"></path>
         <path fill="#0d6efd" fill-rule="evenodd" d="M363.73828228501475 669.9225043495812C363.73828228501475 671.2225043495812 363.73828228501475 672.6225043495812 363.6382822850148 673.9225043495812L387.83828228501477 655.4225043495812C387.73828228501475 654.3225043495812 387.73828228501475 653.2225043495812 387.83828228501477 652.2225043495812L363.73828228501475 669.9225043495812Z " transform="matrix(0.9660536071965111,0,0,0.9660536071965111,2.364512640150423,4.114302704186684)"></path>
         <g transform="matrix(1.9321072143930222,0,0,1.9321072143930222,2.364512640150423,4.114302704186684)"></g>
      </g>
      <g id="logo" transform="matrix(0.8087356538412828,0,0,0.8087356538412828,270.72198951218473,-7.935940361719062)" style="transform:matrix(0.8087356538412828,0,0,0.8087356538412828,270.72198951218473,-7.935940361719062)">
         <g id="brand" fill="#07253f" style="transform:matrix(1,0,0,1,0,0);" >
            <g transform="matrix(1,0,0,1,0,0)">
               <path id="text" transform="matrix(1 0 0 1 -1.248 78.624)" d="M112.9793088181205 477.781759479243L100.5953088181205 477.781759479243L100.5953088181205 467.317759479243L139.2833088181205 467.317759479243L139.2833088181205 477.781759479243L127.1873088181205 477.781759479243L127.1873088181205 545.077759479243L112.9793088181205 545.077759479243L112.9793088181205 477.781759479243ZM145.7153088181205 467.317759479243L158.7713088181205 467.317759479243L158.7713088181205 494.965759479243C162.9313088181205 490.805759479243 167.5073088181205 488.72575947924304 172.49930881812048 488.72575947924304C175.6353088181205 488.72575947924304 177.9553088181205 489.877759479243 179.4593088181205 492.181759479243C180.96330881812048 494.48575947924303 181.7153088181205 497.397759479243 181.7153088181205 500.91775947924305L181.7153088181205 545.077759479243L168.7553088181205 545.077759479243L168.7553088181205 503.50975947924303C168.7553088181205 501.717759479243 168.4833088181205 500.405759479243 167.93930881812048 499.573759479243C167.3953088181205 498.741759479243 166.4193088181205 498.325759479243 165.01130881812048 498.325759479243C163.2833088181205 498.325759479243 161.2033088181205 499.253759479243 158.7713088181205 501.109759479243L158.7713088181205 545.077759479243L145.7153088181205 545.077759479243L145.7153088181205 467.317759479243ZM194.6753088181205 540.805759479243C191.79530881812047 537.381759479243 190.35530881812048 532.309759479243 190.35530881812048 525.589759479243L190.35530881812048 509.077759479243C190.35530881812048 502.293759479243 191.8113088181205 497.205759479243 194.7233088181205 493.813759479243C197.6353088181205 490.421759479243 202.1313088181205 488.72575947924304 208.2113088181205 488.72575947924304C214.4833088181205 488.72575947924304 218.91530881812048 490.48575947924303 221.5073088181205 494.005759479243C224.0993088181205 497.525759479243 225.3953088181205 502.837759479243 225.3953088181205 509.941759479243L225.3953088181205 517.909759479243L203.3153088181205 517.909759479243L203.3153088181205 528.853759479243C203.3153088181205 531.5417594792431 203.7153088181205 533.4937594792431 204.5153088181205 534.709759479243C205.3153088181205 535.925759479243 206.5793088181205 536.533759479243 208.30730881812048 536.533759479243C209.9713088181205 536.533759479243 211.1713088181205 535.941759479243 211.9073088181205 534.757759479243C212.6433088181205 533.573759479243 213.01130881812048 531.765759479243 213.01130881812048 529.333759479243L213.01130881812048 524.629759479243L225.2993088181205 524.629759479243L225.2993088181205 528.4697594792431C225.2993088181205 534.165759479243 223.8593088181205 538.501759479243 220.9793088181205 541.477759479243C218.0993088181205 544.453759479243 213.84330881812048 545.941759479243 208.2113088181205 545.941759479243C202.0673088181205 545.941759479243 197.5553088181205 544.2297594792431 194.6753088181205 540.805759479243ZM213.01130881812048 511.477759479243L213.01130881812048 506.197759479243C213.01130881812048 503.317759479243 212.6593088181205 501.253759479243 211.9553088181205 500.005759479243C211.2513088181205 498.757759479243 210.0033088181205 498.133759479243 208.2113088181205 498.133759479243C206.35530881812048 498.133759479243 205.0753088181205 498.805759479243 204.3713088181205 500.149759479243C203.6673088181205 501.493759479243 203.3153088181205 503.989759479243 203.3153088181205 507.637759479243L203.3153088181205 511.477759479243L213.01130881812048 511.477759479243ZM262.21130881812053 539.365759479243C258.8513088181205 534.853759479243 257.1713088181205 528.4697594792431 257.1713088181205 520.213759479243L257.1713088181205 492.469759479243C257.1713088181205 483.957759479243 258.8353088181205 477.493759479243 262.1633088181205 473.077759479243C265.4913088181205 468.661759479243 271.2193088181205 466.453759479243 279.3473088181205 466.453759479243C286.9633088181205 466.453759479243 292.3713088181205 468.373759479243 295.5713088181205 472.213759479243C298.7713088181205 476.053759479243 300.3713088181205 481.589759479243 300.3713088181205 488.82175947924304L300.3713088181205 495.349759479243L286.7393088181205 495.349759479243L286.7393088181205 488.62975947924303C286.7393088181205 485.877759479243 286.6113088181205 483.717759479243 286.35530881812053 482.149759479243C286.0993088181205 480.58175947924303 285.4433088181205 479.301759479243 284.38730881812046 478.309759479243C283.33130881812053 477.317759479243 281.6833088181205 476.82175947924304 279.4433088181205 476.82175947924304C277.1393088181205 476.82175947924304 275.41130881812046 477.349759479243 274.25930881812053 478.405759479243C273.1073088181205 479.461759479243 272.35530881812053 480.86975947924304 272.0033088181205 482.62975947924303C271.65130881812047 484.389759479243 271.4753088181205 486.67775947924304 271.4753088181205 489.493759479243L271.4753088181205 523.189759479243C271.4753088181205 527.605759479243 272.0513088181205 530.789759479243 273.2033088181205 532.741759479243C274.35530881812053 534.693759479243 276.43530881812046 535.669759479243 279.4433088181205 535.669759479243C281.6193088181205 535.669759479243 283.23530881812053 535.157759479243 284.29130881812046 534.133759479243C285.3473088181205 533.109759479243 286.0193088181205 531.749759479243 286.30730881812053 530.053759479243C286.5953088181205 528.357759479243 286.7393088181205 526.101759479243 286.7393088181205 523.285759479243L286.7393088181205 516.2777594792431L300.3713088181205 516.2777594792431L300.3713088181205 522.5177594792431C300.3713088181205 530.005759479243 298.8033088181205 535.813759479243 295.6673088181205 539.941759479243C292.53130881812046 544.069759479243 287.0913088181205 546.133759479243 279.3473088181205 546.133759479243C271.28330881812053 546.133759479243 265.5713088181205 543.877759479243 262.21130881812053 539.365759479243ZM313.8593088181205 544.021759479243C312.0353088181205 542.741759479243 310.62730881812047 541.093759479243 309.6353088181205 539.077759479243C308.6433088181205 537.061759479243 308.1473088181205 534.965759479243 308.1473088181205 532.789759479243C308.1473088181205 528.501759479243 309.1553088181205 524.965759479243 311.1713088181205 522.181759479243C313.1873088181205 519.3977594792431 315.6833088181205 517.237759479243 318.6593088181205 515.701759479243C321.6353088181205 514.165759479243 325.5873088181205 512.4697594792431 330.5153088181205 510.613759479243L330.5153088181205 505.813759479243C330.5153088181205 503.253759479243 330.21130881812053 501.381759479243 329.60330881812047 500.197759479243C328.9953088181205 499.013759479243 327.8273088181205 498.421759479243 326.0993088181205 498.421759479243C323.1553088181205 498.421759479243 321.6193088181205 500.469759479243 321.4913088181205 504.565759479243L321.2993088181205 507.925759479243L308.9153088181205 507.445759479243C309.1073088181205 501.04575947924303 310.6913088181205 496.325759479243 313.6673088181205 493.285759479243C316.6433088181205 490.245759479243 321.1393088181205 488.72575947924304 327.1553088181205 488.72575947924304C332.5953088181205 488.72575947924304 336.62730881812047 490.21375947924304 339.2513088181205 493.18975947924304C341.8753088181205 496.16575947924304 343.1873088181205 500.373759479243 343.1873088181205 505.813759479243L343.1873088181205 531.4457594792431C343.1873088181205 535.413759479243 343.50730881812046 539.957759479243 344.1473088181205 545.077759479243L332.43530881812046 545.077759479243C331.7953088181205 541.621759479243 331.3473088181205 538.965759479243 331.0913088181205 537.109759479243C330.3233088181205 539.605759479243 329.0273088181205 541.701759479243 327.2033088181205 543.3977594792431C325.37930881812053 545.093759479243 323.0273088181205 545.941759479243 320.1473088181205 545.941759479243C317.7793088181205 545.941759479243 315.6833088181205 545.3017594792431 313.8593088181205 544.021759479243ZM328.0673088181205 535.093759479243C329.0593088181205 534.3257594792431 329.8753088181205 533.4937594792431 330.5153088181205 532.597759479243L330.5153088181205 517.045759479243C327.1233088181205 519.029759479243 324.5953088181205 520.933759479243 322.9313088181205 522.757759479243C321.26730881812045 524.581759479243 320.43530881812046 526.869759479243 320.43530881812046 529.621759479243C320.43530881812046 531.669759479243 320.8353088181205 533.285759479243 321.6353088181205 534.4697594792431C322.43530881812046 535.653759479243 323.5393088181205 536.245759479243 324.9473088181205 536.245759479243C326.0353088181205 536.245759479243 327.0753088181205 535.861759479243 328.0673088181205 535.093759479243ZM353.0753088181205 489.589759479243L366.1313088181205 489.589759479243L366.1313088181205 498.133759479243C367.9873088181205 494.86975947924304 369.8753088181205 492.517759479243 371.7953088181205 491.077759479243C373.7153088181205 489.637759479243 375.8593088181205 488.91775947924305 378.2273088181205 488.91775947924305C379.0593088181205 488.91775947924305 379.7313088181205 488.981759479243 380.2433088181205 489.109759479243L380.2433088181205 502.645759479243C378.1953088181205 501.877759479243 376.4033088181205 501.493759479243 374.8673088181205 501.493759479243C371.4113088181205 501.493759479243 368.4993088181205 503.285759479243 366.1313088181205 506.86975947924304L366.1313088181205 545.077759479243L353.0753088181205 545.077759479243L353.0753088181205 489.589759479243ZM418.6433088181205 477.781759479243L406.2593088181205 477.781759479243L406.2593088181205 467.317759479243L444.9473088181205 467.317759479243L444.9473088181205 477.781759479243L432.8513088181205 477.781759479243L432.8513088181205 545.077759479243L418.6433088181205 545.077759479243L418.6433088181205 477.781759479243ZM451.4753088181205 489.589759479243L464.5313088181205 489.589759479243L464.5313088181205 498.133759479243C466.3873088181205 494.86975947924304 468.2753088181205 492.517759479243 470.1953088181205 491.077759479243C472.11530881812047 489.637759479243 474.2593088181205 488.91775947924305 476.62730881812047 488.91775947924305C477.4593088181205 488.91775947924305 478.1313088181205 488.981759479243 478.6433088181205 489.109759479243L478.6433088181205 502.645759479243C476.5953088181205 501.877759479243 474.8033088181205 501.493759479243 473.2673088181205 501.493759479243C469.8113088181205 501.493759479243 466.8993088181205 503.285759479243 464.5313088181205 506.86975947924304L464.5313088181205 545.077759479243L451.4753088181205 545.077759479243L451.4753088181205 489.589759479243ZM485.4593088181205 469.909759479243L498.5153088181205 469.909759479243L498.5153088181205 480.757759479243L485.4593088181205 480.757759479243L485.4593088181205 469.909759479243ZM485.4593088181205 489.589759479243L498.5153088181205 489.589759479243L498.5153088181205 545.077759479243L485.4593088181205 545.077759479243L485.4593088181205 489.589759479243ZM508.8833088181205 489.589759479243L521.9393088181205 489.589759479243L521.9393088181205 493.813759479243C525.4593088181205 490.421759479243 529.2353088181205 488.72575947924304 533.2673088181205 488.72575947924304C537.7473088181205 488.72575947924304 540.9153088181205 490.58175947924303 542.7713088181205 494.293759479243C544.6273088181205 498.005759479243 545.5553088181205 502.325759479243 545.5553088181205 507.253759479243L545.5553088181205 526.069759479243C545.5553088181205 532.021759479243 544.5153088181205 536.821759479243 542.4353088181206 540.4697594792431C540.3553088181204 544.117759479243 537.0753088181204 545.941759479243 532.5953088181204 545.941759479243C529.0113088181205 545.941759479243 525.4593088181205 544.2777594792431 521.9393088181205 540.949759479243L521.9393088181205 563.317759479243L508.8833088181205 563.317759479243L508.8833088181205 489.589759479243ZM531.4913088181205 534.133759479243C532.1633088181204 532.341759479243 532.4993088181204 529.813759479243 532.4993088181204 526.549759479243L532.4993088181204 506.58175947924303C532.4993088181204 503.70175947924304 532.1473088181206 501.461759479243 531.4433088181205 499.861759479243C530.7393088181204 498.261759479243 529.4593088181205 497.461759479243 527.6033088181205 497.461759479243C525.6833088181205 497.461759479243 523.7953088181205 498.261759479243 521.9393088181205 499.861759479243L521.9393088181205 534.901759479243C523.7313088181205 536.181759479243 525.6513088181205 536.821759479243 527.6993088181205 536.821759479243C529.5553088181205 536.821759479243 530.8193088181205 535.925759479243 531.4913088181205 534.133759479243Z "></path>
            </g>
         </g>
         <g id="slogan" fill="#0d6efd" transform="matrix(1,0,0,1,0,128.864013671875)">
            <g transform="matrix(0.5,0,0,0.5,0,0)">
               <path id="text" transform="matrix(1 0 0 1 -7.392 73.344)" d="M246.26261763624098 1058.667518958486C248.278617636241 1060.267518958486 249.878617636241 1062.251518958486 251.062617636241 1064.619518958486C252.24661763624098 1066.9875189584861 252.838617636241 1069.515518958486 252.838617636241 1072.203518958486C252.838617636241 1075.595518958486 251.974617636241 1078.6515189584861 250.24661763624098 1081.371518958486C248.518617636241 1084.091518958486 246.006617636241 1086.235518958486 242.71061763624098 1087.803518958486C239.414617636241 1089.371518958486 235.52661763624099 1090.155518958486 231.046617636241 1090.155518958486L206.086617636241 1090.155518958486L206.086617636241 1023.243518958486L230.086617636241 1023.243518958486C234.630617636241 1023.243518958486 238.50261763624098 1023.9955189584861 241.702617636241 1025.499518958486C244.902617636241 1027.003518958486 247.302617636241 1029.0355189584861 248.902617636241 1031.595518958486C250.50261763624098 1034.155518958486 251.302617636241 1037.0355189584861 251.302617636241 1040.235518958486C251.302617636241 1044.203518958486 250.230617636241 1047.483518958486 248.086617636241 1050.075518958486C245.94261763624098 1052.667518958486 243.110617636241 1054.539518958486 239.590617636241 1055.691518958486C242.022617636241 1056.075518958486 244.24661763624098 1057.067518958486 246.26261763624098 1058.667518958486ZM214.82261763624098 1052.139518958486L229.510617636241 1052.139518958486C233.606617636241 1052.139518958486 236.77461763624098 1051.179518958486 239.01461763624098 1049.259518958486C241.254617636241 1047.339518958486 242.374617636241 1044.683518958486 242.374617636241 1041.291518958486C242.374617636241 1037.899518958486 241.254617636241 1035.243518958486 239.01461763624098 1033.323518958486C236.77461763624098 1031.403518958486 233.542617636241 1030.443518958486 229.318617636241 1030.443518958486L214.82261763624098 1030.443518958486L214.82261763624098 1052.139518958486ZM240.45461763624098 1079.883518958486C242.886617636241 1077.835518958486 244.102617636241 1074.9875189584861 244.102617636241 1071.339518958486C244.102617636241 1067.627518958486 242.82261763624098 1064.6995189584861 240.26261763624098 1062.5555189584861C237.702617636241 1060.411518958486 234.278617636241 1059.339518958486 229.99061763624098 1059.339518958486L214.82261763624098 1059.339518958486L214.82261763624098 1082.955518958486L230.278617636241 1082.955518958486C234.630617636241 1082.955518958486 238.022617636241 1081.931518958486 240.45461763624098 1079.883518958486ZM317.446617636241 1067.115518958486L275.398617636241 1067.115518958486C275.718617636241 1072.299518958486 277.494617636241 1076.347518958486 280.726617636241 1079.259518958486C283.958617636241 1082.171518958486 287.87861763624096 1083.627518958486 292.486617636241 1083.627518958486C296.262617636241 1083.627518958486 299.414617636241 1082.7475189584861 301.942617636241 1080.9875189584861C304.470617636241 1079.227518958486 306.246617636241 1076.875518958486 307.270617636241 1073.931518958486L316.678617636241 1073.931518958486C315.270617636241 1078.9875189584861 312.454617636241 1083.099518958486 308.230617636241 1086.267518958486C304.006617636241 1089.435518958486 298.75861763624096 1091.019518958486 292.486617636241 1091.019518958486C287.494617636241 1091.019518958486 283.030617636241 1089.899518958486 279.09461763624097 1087.659518958486C275.158617636241 1085.419518958486 272.07061763624097 1082.235518958486 269.83061763624096 1078.107518958486C267.590617636241 1073.979518958486 266.470617636241 1069.195518958486 266.470617636241 1063.755518958486C266.470617636241 1058.315518958486 267.558617636241 1053.547518958486 269.734617636241 1049.451518958486C271.910617636241 1045.355518958486 274.966617636241 1042.203518958486 278.90261763624096 1039.995518958486C282.838617636241 1037.787518958486 287.366617636241 1036.683518958486 292.486617636241 1036.683518958486C297.478617636241 1036.683518958486 301.894617636241 1037.771518958486 305.734617636241 1039.947518958486C309.574617636241 1042.123518958486 312.534617636241 1045.115518958486 314.614617636241 1048.923518958486C316.694617636241 1052.731518958486 317.734617636241 1057.0355189584861 317.734617636241 1061.835518958486C317.734617636241 1063.499518958486 317.638617636241 1065.259518958486 317.446617636241 1067.115518958486ZM306.502617636241 1051.419518958486C305.030617636241 1049.019518958486 303.030617636241 1047.195518958486 300.502617636241 1045.947518958486C297.97461763624096 1044.6995189584861 295.174617636241 1044.075518958486 292.102617636241 1044.075518958486C287.686617636241 1044.075518958486 283.92661763624096 1045.483518958486 280.822617636241 1048.299518958486C277.718617636241 1051.115518958486 275.942617636241 1055.019518958486 275.494617636241 1060.011518958486L308.710617636241 1060.011518958486C308.710617636241 1056.683518958486 307.97461763624096 1053.819518958486 306.502617636241 1051.419518958486ZM373.846617636241 1088.475518958486C370.358617636241 1086.907518958486 367.622617636241 1084.731518958486 365.63861763624095 1081.947518958486C363.654617636241 1079.163518958486 362.630617636241 1075.947518958486 362.566617636241 1072.299518958486L371.87861763624096 1072.299518958486C372.198617636241 1075.435518958486 373.494617636241 1078.075518958486 375.766617636241 1080.219518958486C378.038617636241 1082.363518958486 381.350617636241 1083.435518958486 385.70261763624103 1083.435518958486C389.862617636241 1083.435518958486 393.14261763624097 1082.395518958486 395.542617636241 1080.315518958486C397.942617636241 1078.235518958486 399.14261763624097 1075.563518958486 399.14261763624097 1072.299518958486C399.14261763624097 1069.739518958486 398.438617636241 1067.659518958486 397.030617636241 1066.059518958486C395.622617636241 1064.4595189584861 393.862617636241 1063.243518958486 391.75061763624103 1062.411518958486C389.63861763624095 1061.579518958486 386.790617636241 1060.683518958486 383.206617636241 1059.723518958486C378.790617636241 1058.571518958486 375.254617636241 1057.419518958486 372.598617636241 1056.267518958486C369.942617636241 1055.115518958486 367.670617636241 1053.307518958486 365.78261763624096 1050.8435189584861C363.894617636241 1048.379518958486 362.95061763624096 1045.067518958486 362.95061763624096 1040.907518958486C362.95061763624096 1037.259518958486 363.87861763624096 1034.027518958486 365.73461763624096 1031.211518958486C367.59061763624095 1028.395518958486 370.198617636241 1026.219518958486 373.558617636241 1024.683518958486C376.918617636241 1023.147518958486 380.77461763624103 1022.3795189584861 385.126617636241 1022.3795189584861C391.398617636241 1022.3795189584861 396.534617636241 1023.9475189584861 400.534617636241 1027.083518958486C404.534617636241 1030.219518958486 406.790617636241 1034.379518958486 407.302617636241 1039.563518958486L397.70261763624103 1039.563518958486C397.382617636241 1037.003518958486 396.038617636241 1034.7475189584861 393.670617636241 1032.7955189584861C391.302617636241 1030.8435189584861 388.16661763624097 1029.867518958486 384.262617636241 1029.867518958486C380.61461763624095 1029.867518958486 377.63861763624095 1030.811518958486 375.334617636241 1032.6995189584861C373.030617636241 1034.587518958486 371.87861763624096 1037.2275189584861 371.87861763624096 1040.619518958486C371.87861763624096 1043.051518958486 372.566617636241 1045.0355189584861 373.942617636241 1046.571518958486C375.318617636241 1048.107518958486 377.014617636241 1049.275518958486 379.030617636241 1050.075518958486C381.04661763624097 1050.875518958486 383.87861763624096 1051.787518958486 387.526617636241 1052.811518958486C391.942617636241 1054.027518958486 395.494617636241 1055.2275189584861 398.182617636241 1056.411518958486C400.870617636241 1057.595518958486 403.174617636241 1059.419518958486 405.09461763624097 1061.883518958486C407.014617636241 1064.347518958486 407.97461763624096 1067.691518958486 407.97461763624096 1071.915518958486C407.97461763624096 1075.179518958486 407.110617636241 1078.251518958486 405.382617636241 1081.1315189584861C403.654617636241 1084.011518958486 401.09461763624097 1086.347518958486 397.70261763624103 1088.139518958486C394.310617636241 1089.931518958486 390.310617636241 1090.827518958486 385.70261763624103 1090.827518958486C381.286617636241 1090.827518958486 377.334617636241 1090.043518958486 373.846617636241 1088.475518958486ZM425.63861763624095 1049.499518958486C427.814617636241 1045.435518958486 430.80661763624096 1042.283518958486 434.61461763624095 1040.043518958486C438.422617636241 1037.803518958486 442.66261763624095 1036.683518958486 447.334617636241 1036.683518958486C451.942617636241 1036.683518958486 455.942617636241 1037.675518958486 459.334617636241 1039.659518958486C462.726617636241 1041.643518958486 465.254617636241 1044.139518958486 466.918617636241 1047.147518958486L466.918617636241 1037.547518958486L475.750617636241 1037.547518958486L475.750617636241 1090.155518958486L466.918617636241 1090.155518958486L466.918617636241 1080.363518958486C465.190617636241 1083.435518958486 462.614617636241 1085.979518958486 459.190617636241 1087.995518958486C455.766617636241 1090.011518958486 451.78261763624096 1091.019518958486 447.238617636241 1091.019518958486C442.566617636241 1091.019518958486 438.342617636241 1089.867518958486 434.566617636241 1087.563518958486C430.790617636241 1085.259518958486 427.814617636241 1082.027518958486 425.63861763624095 1077.867518958486C423.462617636241 1073.707518958486 422.374617636241 1068.971518958486 422.374617636241 1063.659518958486C422.374617636241 1058.283518958486 423.462617636241 1053.563518958486 425.63861763624095 1049.499518958486ZM464.518617636241 1053.387518958486C462.918617636241 1050.443518958486 460.758617636241 1048.187518958486 458.038617636241 1046.619518958486C455.318617636241 1045.051518958486 452.326617636241 1044.267518958486 449.062617636241 1044.267518958486C445.79861763624103 1044.267518958486 442.822617636241 1045.0355189584861 440.134617636241 1046.571518958486C437.446617636241 1048.107518958486 435.302617636241 1050.347518958486 433.70261763624103 1053.291518958486C432.102617636241 1056.235518958486 431.302617636241 1059.691518958486 431.302617636241 1063.659518958486C431.302617636241 1067.691518958486 432.102617636241 1071.195518958486 433.70261763624103 1074.171518958486C435.302617636241 1077.147518958486 437.446617636241 1079.419518958486 440.134617636241 1080.9875189584861C442.822617636241 1082.5555189584861 445.79861763624103 1083.339518958486 449.062617636241 1083.339518958486C452.326617636241 1083.339518958486 455.318617636241 1082.5555189584861 458.038617636241 1080.9875189584861C460.758617636241 1079.419518958486 462.918617636241 1077.147518958486 464.518617636241 1074.171518958486C466.11861763624097 1071.195518958486 466.918617636241 1067.723518958486 466.918617636241 1063.755518958486C466.918617636241 1059.787518958486 466.11861763624097 1056.331518958486 464.518617636241 1053.387518958486ZM516.742617636241 1044.7475189584861L505.702617636241 1044.7475189584861L505.702617636241 1090.155518958486L496.966617636241 1090.155518958486L496.966617636241 1044.7475189584861L490.150617636241 1044.7475189584861L490.150617636241 1037.547518958486L496.966617636241 1037.547518958486L496.966617636241 1033.803518958486C496.966617636241 1027.915518958486 498.48661763624096 1023.611518958486 501.526617636241 1020.891518958486C504.566617636241 1018.171518958486 509.446617636241 1016.811518958486 516.166617636241 1016.811518958486L516.166617636241 1024.107518958486C512.326617636241 1024.107518958486 509.622617636241 1024.859518958486 508.054617636241 1026.363518958486C506.48661763624096 1027.867518958486 505.702617636241 1030.347518958486 505.702617636241 1033.803518958486L505.702617636241 1037.547518958486L516.742617636241 1037.547518958486L516.742617636241 1044.7475189584861ZM579.430617636241 1067.115518958486L537.382617636241 1067.115518958486C537.702617636241 1072.299518958486 539.478617636241 1076.347518958486 542.7106176362411 1079.259518958486C545.942617636241 1082.171518958486 549.862617636241 1083.627518958486 554.4706176362411 1083.627518958486C558.246617636241 1083.627518958486 561.3986176362409 1082.7475189584861 563.926617636241 1080.9875189584861C566.454617636241 1079.227518958486 568.230617636241 1076.875518958486 569.2546176362409 1073.931518958486L578.6626176362411 1073.931518958486C577.2546176362409 1078.9875189584861 574.438617636241 1083.099518958486 570.214617636241 1086.267518958486C565.990617636241 1089.435518958486 560.742617636241 1091.019518958486 554.4706176362411 1091.019518958486C549.478617636241 1091.019518958486 545.0146176362409 1089.899518958486 541.078617636241 1087.659518958486C537.142617636241 1085.419518958486 534.054617636241 1082.235518958486 531.814617636241 1078.107518958486C529.574617636241 1073.979518958486 528.454617636241 1069.195518958486 528.454617636241 1063.755518958486C528.454617636241 1058.315518958486 529.542617636241 1053.547518958486 531.718617636241 1049.451518958486C533.894617636241 1045.355518958486 536.950617636241 1042.203518958486 540.886617636241 1039.995518958486C544.8226176362409 1037.787518958486 549.3506176362409 1036.683518958486 554.4706176362411 1036.683518958486C559.462617636241 1036.683518958486 563.878617636241 1037.771518958486 567.718617636241 1039.947518958486C571.558617636241 1042.123518958486 574.5186176362411 1045.115518958486 576.598617636241 1048.923518958486C578.6786176362409 1052.731518958486 579.718617636241 1057.0355189584861 579.718617636241 1061.835518958486C579.718617636241 1063.499518958486 579.622617636241 1065.259518958486 579.430617636241 1067.115518958486ZM568.4866176362409 1051.419518958486C567.0146176362409 1049.019518958486 565.0146176362409 1047.195518958486 562.4866176362409 1045.947518958486C559.958617636241 1044.6995189584861 557.1586176362409 1044.075518958486 554.086617636241 1044.075518958486C549.670617636241 1044.075518958486 545.910617636241 1045.483518958486 542.8066176362411 1048.299518958486C539.702617636241 1051.115518958486 537.926617636241 1055.019518958486 537.478617636241 1060.011518958486L570.694617636241 1060.011518958486C570.694617636241 1056.683518958486 569.958617636241 1053.819518958486 568.4866176362409 1051.419518958486ZM627.622617636241 1039.0355189584861C630.5666176362411 1033.819518958486 634.5826176362409 1029.739518958486 639.670617636241 1026.7955189584861C644.7586176362411 1023.851518958486 650.406617636241 1022.3795189584861 656.6146176362411 1022.3795189584861C663.910617636241 1022.3795189584861 670.278617636241 1024.139518958486 675.718617636241 1027.659518958486C681.1586176362409 1031.179518958486 685.126617636241 1036.171518958486 687.622617636241 1042.635518958486L677.1586176362409 1042.635518958486C675.3026176362409 1038.6035189584861 672.6306176362409 1035.499518958486 669.142617636241 1033.323518958486C665.654617636241 1031.147518958486 661.478617636241 1030.059518958486 656.6146176362411 1030.059518958486C651.942617636241 1030.059518958486 647.750617636241 1031.147518958486 644.038617636241 1033.323518958486C640.326617636241 1035.499518958486 637.414617636241 1038.587518958486 635.3026176362409 1042.587518958486C633.190617636241 1046.587518958486 632.134617636241 1051.275518958486 632.134617636241 1056.6515189584861C632.134617636241 1061.963518958486 633.190617636241 1066.619518958486 635.3026176362409 1070.619518958486C637.414617636241 1074.619518958486 640.326617636241 1077.707518958486 644.038617636241 1079.883518958486C647.750617636241 1082.059518958486 651.942617636241 1083.147518958486 656.6146176362411 1083.147518958486C661.478617636241 1083.147518958486 665.654617636241 1082.075518958486 669.142617636241 1079.931518958486C672.6306176362409 1077.787518958486 675.3026176362409 1074.6995189584861 677.1586176362409 1070.667518958486L687.622617636241 1070.667518958486C685.126617636241 1077.067518958486 681.1586176362409 1082.011518958486 675.718617636241 1085.499518958486C670.278617636241 1088.9875189584861 663.910617636241 1090.731518958486 656.6146176362411 1090.731518958486C650.406617636241 1090.731518958486 644.7586176362411 1089.275518958486 639.670617636241 1086.363518958486C634.5826176362409 1083.451518958486 630.5666176362411 1079.403518958486 627.622617636241 1074.219518958486C624.6786176362409 1069.0355189584861 623.2066176362409 1063.179518958486 623.2066176362409 1056.6515189584861C623.2066176362409 1050.123518958486 624.6786176362409 1044.251518958486 627.622617636241 1039.0355189584861ZM705.382617636241 1049.499518958486C707.558617636241 1045.435518958486 710.550617636241 1042.283518958486 714.358617636241 1040.043518958486C718.166617636241 1037.803518958486 722.406617636241 1036.683518958486 727.078617636241 1036.683518958486C731.686617636241 1036.683518958486 735.686617636241 1037.675518958486 739.078617636241 1039.659518958486C742.470617636241 1041.643518958486 744.998617636241 1044.139518958486 746.662617636241 1047.147518958486L746.662617636241 1037.547518958486L755.494617636241 1037.547518958486L755.494617636241 1090.155518958486L746.662617636241 1090.155518958486L746.662617636241 1080.363518958486C744.934617636241 1083.435518958486 742.358617636241 1085.979518958486 738.934617636241 1087.995518958486C735.510617636241 1090.011518958486 731.526617636241 1091.019518958486 726.982617636241 1091.019518958486C722.310617636241 1091.019518958486 718.086617636241 1089.867518958486 714.310617636241 1087.563518958486C710.5346176362409 1085.259518958486 707.558617636241 1082.027518958486 705.382617636241 1077.867518958486C703.2066176362409 1073.707518958486 702.118617636241 1068.971518958486 702.118617636241 1063.659518958486C702.118617636241 1058.283518958486 703.2066176362409 1053.563518958486 705.382617636241 1049.499518958486ZM744.262617636241 1053.387518958486C742.662617636241 1050.443518958486 740.502617636241 1048.187518958486 737.782617636241 1046.619518958486C735.062617636241 1045.051518958486 732.070617636241 1044.267518958486 728.806617636241 1044.267518958486C725.542617636241 1044.267518958486 722.566617636241 1045.0355189584861 719.878617636241 1046.571518958486C717.190617636241 1048.107518958486 715.046617636241 1050.347518958486 713.446617636241 1053.291518958486C711.846617636241 1056.235518958486 711.046617636241 1059.691518958486 711.046617636241 1063.659518958486C711.046617636241 1067.691518958486 711.846617636241 1071.195518958486 713.446617636241 1074.171518958486C715.046617636241 1077.147518958486 717.190617636241 1079.419518958486 719.878617636241 1080.9875189584861C722.566617636241 1082.5555189584861 725.542617636241 1083.339518958486 728.806617636241 1083.339518958486C732.070617636241 1083.339518958486 735.062617636241 1082.5555189584861 737.782617636241 1080.9875189584861C740.502617636241 1079.419518958486 742.662617636241 1077.147518958486 744.262617636241 1074.171518958486C745.862617636241 1071.195518958486 746.662617636241 1067.723518958486 746.662617636241 1063.755518958486C746.662617636241 1059.787518958486 745.862617636241 1056.331518958486 744.262617636241 1053.387518958486ZM790.390617636241 1039.083518958486C793.238617636241 1037.419518958486 796.710617636241 1036.587518958486 800.806617636241 1036.587518958486L800.806617636241 1045.611518958486L798.502617636241 1045.611518958486C788.710617636241 1045.611518958486 783.814617636241 1050.923518958486 783.814617636241 1061.547518958486L783.814617636241 1090.155518958486L775.078617636241 1090.155518958486L775.078617636241 1037.547518958486L783.814617636241 1037.547518958486L783.814617636241 1046.091518958486C785.3506176362409 1043.083518958486 787.542617636241 1040.7475189584861 790.390617636241 1039.083518958486ZM881.3506176362409 1090.155518958486L865.414617636241 1062.7955189584861L854.854617636241 1062.7955189584861L854.854617636241 1090.155518958486L846.118617636241 1090.155518958486L846.118617636241 1023.243518958486L867.718617636241 1023.243518958486C872.774617636241 1023.243518958486 877.046617636241 1024.107518958486 880.534617636241 1025.835518958486C884.022617636241 1027.563518958486 886.630617636241 1029.899518958486 888.358617636241 1032.8435189584861C890.086617636241 1035.787518958486 890.950617636241 1039.147518958486 890.950617636241 1042.923518958486C890.950617636241 1047.531518958486 889.622617636241 1051.595518958486 886.966617636241 1055.115518958486C884.310617636241 1058.635518958486 880.3266176362409 1060.971518958486 875.014617636241 1062.123518958486L891.814617636241 1090.155518958486L881.3506176362409 1090.155518958486ZM854.854617636241 1055.787518958486L867.718617636241 1055.787518958486C872.454617636241 1055.787518958486 876.006617636241 1054.619518958486 878.3746176362409 1052.283518958486C880.742617636241 1049.947518958486 881.926617636241 1046.827518958486 881.926617636241 1042.923518958486C881.926617636241 1038.955518958486 880.758617636241 1035.883518958486 878.422617636241 1033.707518958486C876.086617636241 1031.531518958486 872.518617636241 1030.443518958486 867.718617636241 1030.443518958486L854.854617636241 1030.443518958486L854.854617636241 1055.787518958486ZM956.998617636241 1067.115518958486L914.950617636241 1067.115518958486C915.270617636241 1072.299518958486 917.046617636241 1076.347518958486 920.2786176362409 1079.259518958486C923.510617636241 1082.171518958486 927.430617636241 1083.627518958486 932.038617636241 1083.627518958486C935.814617636241 1083.627518958486 938.966617636241 1082.7475189584861 941.494617636241 1080.9875189584861C944.022617636241 1079.227518958486 945.798617636241 1076.875518958486 946.822617636241 1073.931518958486L956.2306176362409 1073.931518958486C954.822617636241 1078.9875189584861 952.006617636241 1083.099518958486 947.782617636241 1086.267518958486C943.558617636241 1089.435518958486 938.310617636241 1091.019518958486 932.038617636241 1091.019518958486C927.046617636241 1091.019518958486 922.582617636241 1089.899518958486 918.646617636241 1087.659518958486C914.710617636241 1085.419518958486 911.622617636241 1082.235518958486 909.382617636241 1078.107518958486C907.142617636241 1073.979518958486 906.022617636241 1069.195518958486 906.022617636241 1063.755518958486C906.022617636241 1058.315518958486 907.110617636241 1053.547518958486 909.286617636241 1049.451518958486C911.462617636241 1045.355518958486 914.518617636241 1042.203518958486 918.454617636241 1039.995518958486C922.390617636241 1037.787518958486 926.918617636241 1036.683518958486 932.038617636241 1036.683518958486C937.030617636241 1036.683518958486 941.446617636241 1037.771518958486 945.286617636241 1039.947518958486C949.126617636241 1042.123518958486 952.086617636241 1045.115518958486 954.166617636241 1048.923518958486C956.246617636241 1052.731518958486 957.286617636241 1057.0355189584861 957.286617636241 1061.835518958486C957.286617636241 1063.499518958486 957.190617636241 1065.259518958486 956.998617636241 1067.115518958486ZM946.054617636241 1051.419518958486C944.582617636241 1049.019518958486 942.582617636241 1047.195518958486 940.054617636241 1045.947518958486C937.526617636241 1044.6995189584861 934.726617636241 1044.075518958486 931.654617636241 1044.075518958486C927.238617636241 1044.075518958486 923.478617636241 1045.483518958486 920.3746176362409 1048.299518958486C917.270617636241 1051.115518958486 915.494617636241 1055.019518958486 915.046617636241 1060.011518958486L948.262617636241 1060.011518958486C948.262617636241 1056.683518958486 947.526617636241 1053.819518958486 946.054617636241 1051.419518958486ZM1014.790617636241 1042.395518958486C1018.758617636241 1046.267518958486 1020.742617636241 1051.851518958486 1020.742617636241 1059.147518958486L1020.742617636241 1090.155518958486L1012.102617636241 1090.155518958486L1012.102617636241 1060.395518958486C1012.102617636241 1055.147518958486 1010.790617636241 1051.1315189584861 1008.166617636241 1048.347518958486C1005.542617636241 1045.563518958486 1001.958617636241 1044.171518958486 997.414617636241 1044.171518958486C992.806617636241 1044.171518958486 989.142617636241 1045.611518958486 986.422617636241 1048.491518958486C983.702617636241 1051.371518958486 982.342617636241 1055.563518958486 982.342617636241 1061.067518958486L982.342617636241 1090.155518958486L973.606617636241 1090.155518958486L973.606617636241 1037.547518958486L982.342617636241 1037.547518958486L982.342617636241 1045.0355189584861C984.070617636241 1042.347518958486 986.422617636241 1040.267518958486 989.3986176362409 1038.7955189584861C992.3746176362409 1037.323518958486 995.654617636241 1036.587518958486 999.238617636241 1036.587518958486C1005.638617636241 1036.587518958486 1010.822617636241 1038.523518958486 1014.790617636241 1042.395518958486ZM1050.502617636241 1044.7475189584861L1050.502617636241 1075.755518958486C1050.502617636241 1078.315518958486 1051.046617636241 1080.123518958486 1052.134617636241 1081.179518958486C1053.222617636241 1082.235518958486 1055.110617636241 1082.763518958486 1057.798617636241 1082.763518958486L1064.2306176362408 1082.763518958486L1064.2306176362408 1090.155518958486L1056.358617636241 1090.155518958486C1051.494617636241 1090.155518958486 1047.846617636241 1089.0355189584861 1045.414617636241 1086.7955189584861C1042.982617636241 1084.5555189584861 1041.7666176362409 1080.875518958486 1041.7666176362409 1075.755518958486L1041.7666176362409 1044.7475189584861L1034.950617636241 1044.7475189584861L1034.950617636241 1037.547518958486L1041.7666176362409 1037.547518958486L1041.7666176362409 1024.299518958486L1050.502617636241 1024.299518958486L1050.502617636241 1037.547518958486L1064.2306176362408 1037.547518958486L1064.2306176362408 1044.7475189584861L1050.502617636241 1044.7475189584861ZM1079.590617636241 1049.499518958486C1081.7666176362409 1045.435518958486 1084.758617636241 1042.283518958486 1088.566617636241 1040.043518958486C1092.374617636241 1037.803518958486 1096.6146176362408 1036.683518958486 1101.2866176362409 1036.683518958486C1105.894617636241 1036.683518958486 1109.894617636241 1037.675518958486 1113.2866176362409 1039.659518958486C1116.6786176362411 1041.643518958486 1119.206617636241 1044.139518958486 1120.8706176362411 1047.147518958486L1120.8706176362411 1037.547518958486L1129.702617636241 1037.547518958486L1129.702617636241 1090.155518958486L1120.8706176362411 1090.155518958486L1120.8706176362411 1080.363518958486C1119.142617636241 1083.435518958486 1116.566617636241 1085.979518958486 1113.142617636241 1087.995518958486C1109.718617636241 1090.011518958486 1105.734617636241 1091.019518958486 1101.1906176362409 1091.019518958486C1096.5186176362408 1091.019518958486 1092.2946176362411 1089.867518958486 1088.5186176362408 1087.563518958486C1084.742617636241 1085.259518958486 1081.7666176362409 1082.027518958486 1079.590617636241 1077.867518958486C1077.414617636241 1073.707518958486 1076.3266176362408 1068.971518958486 1076.3266176362408 1063.659518958486C1076.3266176362408 1058.283518958486 1077.414617636241 1053.563518958486 1079.590617636241 1049.499518958486ZM1118.470617636241 1053.387518958486C1116.8706176362411 1050.443518958486 1114.7106176362408 1048.187518958486 1111.990617636241 1046.619518958486C1109.270617636241 1045.051518958486 1106.278617636241 1044.267518958486 1103.014617636241 1044.267518958486C1099.750617636241 1044.267518958486 1096.7746176362411 1045.0355189584861 1094.086617636241 1046.571518958486C1091.398617636241 1048.107518958486 1089.254617636241 1050.347518958486 1087.654617636241 1053.291518958486C1086.054617636241 1056.235518958486 1085.254617636241 1059.691518958486 1085.254617636241 1063.659518958486C1085.254617636241 1067.691518958486 1086.054617636241 1071.195518958486 1087.654617636241 1074.171518958486C1089.254617636241 1077.147518958486 1091.398617636241 1079.419518958486 1094.086617636241 1080.9875189584861C1096.7746176362411 1082.5555189584861 1099.750617636241 1083.339518958486 1103.014617636241 1083.339518958486C1106.278617636241 1083.339518958486 1109.270617636241 1082.5555189584861 1111.990617636241 1080.9875189584861C1114.7106176362408 1079.419518958486 1116.8706176362411 1077.147518958486 1118.470617636241 1074.171518958486C1120.070617636241 1071.195518958486 1120.8706176362411 1067.723518958486 1120.8706176362411 1063.755518958486C1120.8706176362411 1059.787518958486 1120.070617636241 1056.331518958486 1118.470617636241 1053.387518958486ZM1158.022617636241 1019.1155189584861L1158.022617636241 1090.155518958486L1149.2866176362409 1090.155518958486L1149.2866176362409 1019.1155189584861L1158.022617636241 1019.1155189584861Z "></path>
            </g>
         </g>
      </g>
   </g>
</svg>